<svg width="64" height="64" viewBox="0 0 64 64" fill="none" xmlns="http://www.w3.org/2000/svg">
<path opacity="0.4" d="M32 64C49.673 64 64 49.6733 64 32C64 14.3269 49.673 0 32 0C14.3269 0 0 14.3269 0 32C0 49.6733 14.3269 64 32 64Z" fill="#23D7FF"/>
<path d="M32 15.7758C25.376 15.7758 20 21.1518 20 27.7756C20 34.2716 25.088 39.5516 31.84 39.7436H32.128H32.352H32.416C38.88 39.5196 43.968 34.2716 44 27.7756C44 21.1518 38.624 15.7758 32 15.7758Z" fill="#23D7FF"/>
<path d="M53.6982 55.52C48.0022 60.768 40.3862 64 32.0022 64C23.6182 64 16.0022 60.768 10.3062 55.52C11.0742 52.608 13.1542 49.952 16.1942 47.904C24.9302 42.08 39.1382 42.08 47.8102 47.904C50.8822 49.952 52.9302 52.608 53.6982 55.52Z" fill="#23D7FF"/>
</svg>
